<?xml version="1.0" standalone="no"?>
<!DOCTYPE svg PUBLIC "-//W3C//DTD SVG 20010904//EN"
 "http://www.w3.org/TR/2001/REC-SVG-20010904/DTD/svg10.dtd">
<svg version="1.0" xmlns="http://www.w3.org/2000/svg"
 width="1878.000000pt" height="674.000000pt" viewBox="0 0 1878.000000 674.000000"
 preserveAspectRatio="xMidYMid meet">

<g transform="translate(0.000000,674.000000) scale(0.100000,-0.100000)"
fill="#ffffff" stroke="none">
<path d="M7714 6733 c-11 -2 -365 -182 -785 -399 -551 -284 -773 -404 -796
-428 -17 -19 -36 -51 -42 -73 -14 -51 -14 -456 0 -508 23 -82 124 -146 207
-130 43 8 1559 699 1585 723 11 9 28 35 38 57 17 36 19 70 19 328 0 319 -2
330 -63 384 -49 43 -103 58 -163 46z"/>
<path d="M13095 6614 c-38 -8 -112 -36 -164 -61 -326 -157 -454 -553 -289
-891 23 -47 58 -92 118 -153 97 -98 179 -145 314 -179 97 -24 271 -27 363 -5
424 100 639 545 452 935 -55 114 -177 237 -291 293 -151 73 -338 95 -503 61z"/>
<path d="M3270 5964 c-14 -2 -56 -9 -95 -15 -328 -53 -571 -238 -697 -532
-178 -411 -127 -1001 130 -1512 186 -371 544 -734 947 -958 328 -183 745 -297
1085 -297 l91 0 -7 -37 c-24 -132 -121 -341 -244 -526 -112 -168 -214 -289
-376 -447 -381 -371 -813 -590 -1161 -590 -543 0 -1024 612 -1383 1760 -182
585 -316 1195 -485 2212 -111 675 -117 705 -142 729 -10 11 -51 26 -93 35
-108 23 -428 14 -555 -15 -117 -27 -232 -84 -263 -131 -22 -33 -23 -41 -17
-135 61 -971 216 -1938 441 -2740 417 -1486 1057 -2397 1878 -2670 486 -162
973 -110 1516 161 641 321 1253 933 1588 1591 146 286 221 508 267 785 5 31
10 37 38 43 98 20 342 112 594 225 85 39 157 70 159 70 2 0 5 -570 6 -1267 l3
-1268 22 -42 c25 -45 59 -74 112 -91 45 -16 809 -16 864 -1 21 5 53 23 71 40
71 62 66 -104 66 2188 0 1411 -3 2078 -11 2104 -13 47 -63 106 -106 123 -25
11 -122 14 -453 14 -398 0 -423 -1 -459 -20 -54 -27 -87 -71 -100 -130 -7 -31
-11 -178 -11 -368 l-1 -317 -107 -49 c-239 -110 -520 -218 -628 -240 l-30 -7
-12 128 c-19 209 -60 381 -139 578 -314 782 -1118 1459 -1900 1600 -85 15
-352 28 -403 19z m171 -844 c349 -36 646 -176 895 -425 258 -257 401 -580 421
-949 5 -98 4 -113 -12 -126 -60 -50 -429 10 -650 106 -436 189 -755 586 -845
1053 -20 104 -37 310 -27 335 8 19 67 21 218 6z"/>
<path d="M9905 4825 c-434 -61 -797 -211 -1095 -452 -89 -72 -257 -243 -321
-328 -252 -329 -402 -719 -455 -1182 -21 -176 -15 -605 10 -757 37 -225 83
-396 153 -571 287 -714 877 -1171 1668 -1291 168 -26 571 -26 735 -1 734 113
1270 490 1573 1105 58 119 62 131 62 197 -1 79 -22 130 -77 185 -69 70 -67 70
-519 70 -450 0 -445 1 -518 -65 -21 -20 -61 -75 -87 -123 -57 -102 -186 -237
-276 -291 -165 -96 -358 -139 -588 -128 -439 20 -758 270 -904 707 -160 482
-112 1151 110 1510 194 316 473 470 849 470 364 0 642 -148 809 -433 62 -105
106 -148 175 -172 66 -22 796 -22 862 0 91 31 159 115 174 216 8 56 -15 130
-89 278 -292 581 -803 936 -1506 1047 -146 23 -607 28 -745 9z"/>
<path d="M16136 4824 c-583 -77 -1098 -347 -1437 -753 -352 -420 -529 -939
-529 -1546 1 -724 268 -1352 753 -1771 147 -126 263 -202 452 -294 227 -111
437 -176 705 -217 165 -25 547 -25 725 0 884 126 1566 669 1839 1465 95 277
130 502 130 832 -1 267 -19 419 -78 652 -193 764 -746 1334 -1508 1554 -233
67 -378 86 -678 90 -191 2 -295 -1 -374 -12z m554 -989 c444 -93 750 -396 870
-860 41 -160 53 -292 47 -501 -5 -204 -23 -314 -73 -463 -126 -379 -386 -640
-749 -754 -122 -38 -227 -50 -393 -44 -182 6 -302 35 -447 107 -405 201 -626
629 -625 1213 1 425 114 755 339 991 176 183 386 289 647 325 92 13 291 6 384
-14z"/>
<path d="M12792 4749 c-26 -13 -55 -39 -70 -62 l-27 -41 -3 -2095 c-2 -1444 0
-2107 8 -2132 13 -46 76 -104 127 -118 24 -7 186 -11 438 -11 365 0 403 2 440
19 51 23 102 81 110 123 3 18 4 974 3 2124 l-3 2090 -28 43 c-54 81 -53 81
-532 81 -409 0 -421 -1 -463 -21z"/>
</g>
</svg>
